<svg width="151" height="151" viewBox="0 0 151 151" fill="none" xmlns="http://www.w3.org/2000/svg">
<path d="M77.0359 12C88.3725 12 98.1366 14.1915 106.328 18.5746C114.52 22.8847 120.846 29.1671 125.308 37.4219C129.769 45.6767 132 55.7578 132 67.6652V83.8827H52.9C53.2657 93.3063 56.0816 100.721 61.3476 106.127C66.6867 111.46 74.0738 114.126 83.5087 114.126C91.3346 114.126 98.5023 113.322 105.012 111.715C111.521 110.108 118.213 107.697 125.088 104.483V130.343C119.018 133.339 112.655 135.53 105.999 136.918C99.4165 138.306 91.4078 139 81.9728 139C69.6854 139 58.7877 136.735 49.2796 132.206C39.8447 127.677 32.421 120.774 27.0087 111.496C21.6696 102.219 19 90.5303 19 76.4314C19 62.1133 21.4136 50.2059 26.2408 40.7092C31.1411 31.1395 37.943 23.9804 46.6466 19.2321C55.3502 14.4107 65.4799 12 77.0359 12ZM77.2553 35.7783C70.746 35.7783 65.3337 37.8602 61.0184 42.0242C56.7764 46.1881 54.3262 52.7262 53.668 61.6385H100.623C100.55 56.671 99.6359 52.2514 97.8806 48.3796C96.1984 44.5079 93.6385 41.4397 90.201 39.1752C86.8366 36.9106 82.5214 35.7783 77.2553 35.7783Z" fill="#1D90C8"/>
</svg>
