<svg width="565" height="215" viewBox="0 0 565 215" fill="none" xmlns="http://www.w3.org/2000/svg">
<g filter="url(#filter0_dddd_6_20)">
<rect x="30" y="30" width="505" height="155" rx="10" fill="#1D90C8"/>
</g>
<path d="M79.1094 91.6094C83.9531 91.6094 88.125 92.5469 91.625 94.4219C95.125 96.2656 97.8281 98.9531 99.7344 102.484C101.641 106.016 102.594 110.328 102.594 115.422V122.359H68.7969C68.9531 126.391 70.1562 129.562 72.4062 131.875C74.6875 134.156 77.8438 135.297 81.875 135.297C85.2188 135.297 88.2812 134.953 91.0625 134.266C93.8438 133.578 96.7031 132.547 99.6406 131.172V142.234C97.0469 143.516 94.3281 144.453 91.4844 145.047C88.6719 145.641 85.25 145.938 81.2188 145.938C75.9688 145.938 71.3125 144.969 67.25 143.031C63.2188 141.094 60.0469 138.141 57.7344 134.172C55.4531 130.203 54.3125 125.203 54.3125 119.172C54.3125 113.047 55.3438 107.953 57.4062 103.891C59.5 99.7969 62.4062 96.7344 66.125 94.7031C69.8438 92.6406 74.1719 91.6094 79.1094 91.6094ZM79.2031 101.781C76.4219 101.781 74.1094 102.672 72.2656 104.453C70.4531 106.234 69.4062 109.031 69.125 112.844H89.1875C89.1562 110.719 88.7656 108.828 88.0156 107.172C87.2969 105.516 86.2031 104.203 84.7344 103.234C83.2969 102.266 81.4531 101.781 79.2031 101.781ZM143.984 91.6094C149.578 91.6094 154.078 93.1406 157.484 96.2031C160.891 99.2344 162.594 104.109 162.594 110.828V145H148.297V114.391C148.297 110.641 147.609 107.812 146.234 105.906C144.891 104 142.766 103.047 139.859 103.047C135.484 103.047 132.5 104.531 130.906 107.5C129.312 110.469 128.516 114.75 128.516 120.344V145H114.219V92.5938H125.141L127.062 99.2969H127.859C128.984 97.4844 130.375 96.0156 132.031 94.8906C133.719 93.7656 135.578 92.9375 137.609 92.4062C139.672 91.875 141.797 91.6094 143.984 91.6094ZM213.875 129.438C213.875 133 213.031 136.016 211.344 138.484C209.688 140.922 207.203 142.781 203.891 144.062C200.578 145.312 196.453 145.938 191.516 145.938C187.859 145.938 184.719 145.703 182.094 145.234C179.5 144.766 176.875 143.984 174.219 142.891V131.078C177.062 132.359 180.109 133.422 183.359 134.266C186.641 135.078 189.516 135.484 191.984 135.484C194.766 135.484 196.75 135.078 197.938 134.266C199.156 133.422 199.766 132.328 199.766 130.984C199.766 130.109 199.516 129.328 199.016 128.641C198.547 127.922 197.516 127.125 195.922 126.25C194.328 125.344 191.828 124.172 188.422 122.734C185.141 121.359 182.438 119.969 180.312 118.562C178.219 117.156 176.656 115.5 175.625 113.594C174.625 111.656 174.125 109.203 174.125 106.234C174.125 101.391 176 97.75 179.75 95.3125C183.531 92.8438 188.578 91.6094 194.891 91.6094C198.141 91.6094 201.234 91.9375 204.172 92.5938C207.141 93.25 210.188 94.2969 213.312 95.7344L209 106.047C206.406 104.922 203.953 104 201.641 103.281C199.359 102.562 197.031 102.203 194.656 102.203C192.562 102.203 190.984 102.484 189.922 103.047C188.859 103.609 188.328 104.469 188.328 105.625C188.328 106.469 188.594 107.219 189.125 107.875C189.688 108.531 190.75 109.266 192.312 110.078C193.906 110.859 196.234 111.875 199.297 113.125C202.266 114.344 204.844 115.625 207.031 116.969C209.219 118.281 210.906 119.922 212.094 121.891C213.281 123.828 213.875 126.344 213.875 129.438ZM246.641 91.6094C251.484 91.6094 255.656 92.5469 259.156 94.4219C262.656 96.2656 265.359 98.9531 267.266 102.484C269.172 106.016 270.125 110.328 270.125 115.422V122.359H236.328C236.484 126.391 237.688 129.562 239.938 131.875C242.219 134.156 245.375 135.297 249.406 135.297C252.75 135.297 255.812 134.953 258.594 134.266C261.375 133.578 264.234 132.547 267.172 131.172V142.234C264.578 143.516 261.859 144.453 259.016 145.047C256.203 145.641 252.781 145.938 248.75 145.938C243.5 145.938 238.844 144.969 234.781 143.031C230.75 141.094 227.578 138.141 225.266 134.172C222.984 130.203 221.844 125.203 221.844 119.172C221.844 113.047 222.875 107.953 224.938 103.891C227.031 99.7969 229.938 96.7344 233.656 94.7031C237.375 92.6406 241.703 91.6094 246.641 91.6094ZM246.734 101.781C243.953 101.781 241.641 102.672 239.797 104.453C237.984 106.234 236.938 109.031 236.656 112.844H256.719C256.688 110.719 256.297 108.828 255.547 107.172C254.828 105.516 253.734 104.203 252.266 103.234C250.828 102.266 248.984 101.781 246.734 101.781ZM343.297 91.6094C349.234 91.6094 353.719 93.1406 356.75 96.2031C359.812 99.2344 361.344 104.109 361.344 110.828V145H347V114.391C347 110.641 346.359 107.812 345.078 105.906C343.797 104 341.812 103.047 339.125 103.047C335.344 103.047 332.656 104.406 331.062 107.125C329.469 109.812 328.672 113.672 328.672 118.703V145H314.375V114.391C314.375 111.891 314.094 109.797 313.531 108.109C312.969 106.422 312.109 105.156 310.953 104.312C309.797 103.469 308.312 103.047 306.5 103.047C303.844 103.047 301.75 103.719 300.219 105.062C298.719 106.375 297.641 108.328 296.984 110.922C296.359 113.484 296.047 116.625 296.047 120.344V145H281.75V92.5938H292.672L294.594 99.2969H295.391C296.453 97.4844 297.781 96.0156 299.375 94.8906C301 93.7656 302.781 92.9375 304.719 92.4062C306.656 91.875 308.625 91.6094 310.625 91.6094C314.469 91.6094 317.719 92.2344 320.375 93.4844C323.062 94.7344 325.125 96.6719 326.562 99.2969H327.828C329.391 96.6094 331.594 94.6562 334.438 93.4375C337.312 92.2188 340.266 91.6094 343.297 91.6094ZM390.359 72.0625V89.0312C390.359 91 390.297 92.9531 390.172 94.8906C390.078 96.8281 389.953 98.3281 389.797 99.3906H390.359C391.734 97.2344 393.609 95.4062 395.984 93.9062C398.359 92.375 401.438 91.6094 405.219 91.6094C411.094 91.6094 415.859 93.9062 419.516 98.5C423.172 103.094 425 109.828 425 118.703C425 124.672 424.156 129.688 422.469 133.75C420.781 137.781 418.422 140.828 415.391 142.891C412.359 144.922 408.844 145.938 404.844 145.938C401 145.938 397.969 145.25 395.75 143.875C393.531 142.5 391.734 140.953 390.359 139.234H389.375L386.984 145H376.062V72.0625H390.359ZM400.625 103.047C398.125 103.047 396.141 103.562 394.672 104.594C393.203 105.625 392.125 107.172 391.438 109.234C390.781 111.297 390.422 113.906 390.359 117.062V118.609C390.359 123.703 391.109 127.609 392.609 130.328C394.109 133.016 396.844 134.359 400.812 134.359C403.75 134.359 406.078 133 407.797 130.281C409.547 127.562 410.422 123.641 410.422 118.516C410.422 113.391 409.547 109.531 407.797 106.938C406.047 104.344 403.656 103.047 400.625 103.047ZM451.109 145H436.812V72.0625H451.109V145ZM487.766 91.6094C492.609 91.6094 496.781 92.5469 500.281 94.4219C503.781 96.2656 506.484 98.9531 508.391 102.484C510.297 106.016 511.25 110.328 511.25 115.422V122.359H477.453C477.609 126.391 478.812 129.562 481.062 131.875C483.344 134.156 486.5 135.297 490.531 135.297C493.875 135.297 496.938 134.953 499.719 134.266C502.5 133.578 505.359 132.547 508.297 131.172V142.234C505.703 143.516 502.984 144.453 500.141 145.047C497.328 145.641 493.906 145.938 489.875 145.938C484.625 145.938 479.969 144.969 475.906 143.031C471.875 141.094 468.703 138.141 466.391 134.172C464.109 130.203 462.969 125.203 462.969 119.172C462.969 113.047 464 107.953 466.062 103.891C468.156 99.7969 471.062 96.7344 474.781 94.7031C478.5 92.6406 482.828 91.6094 487.766 91.6094ZM487.859 101.781C485.078 101.781 482.766 102.672 480.922 104.453C479.109 106.234 478.062 109.031 477.781 112.844H497.844C497.812 110.719 497.422 108.828 496.672 107.172C495.953 105.516 494.859 104.203 493.391 103.234C491.953 102.266 490.109 101.781 487.859 101.781Z" fill="white"/>
<defs>
<filter id="filter0_dddd_6_20" x="0" y="0" width="565" height="215" filterUnits="userSpaceOnUse" color-interpolation-filters="sRGB">
<feFlood flood-opacity="0" result="BackgroundImageFix"/>
<feColorMatrix in="SourceAlpha" type="matrix" values="0 0 0 0 0 0 0 0 0 0 0 0 0 0 0 0 0 0 127 0" result="hardAlpha"/>
<feOffset dx="-10" dy="-10"/>
<feGaussianBlur stdDeviation="10"/>
<feComposite in2="hardAlpha" operator="out"/>
<feColorMatrix type="matrix" values="0 0 0 0 0 0 0 0 0 0 0 0 0 0 0 0 0 0 0.1 0"/>
<feBlend mode="normal" in2="BackgroundImageFix" result="effect1_dropShadow_6_20"/>
<feColorMatrix in="SourceAlpha" type="matrix" values="0 0 0 0 0 0 0 0 0 0 0 0 0 0 0 0 0 0 127 0" result="hardAlpha"/>
<feOffset dx="10" dy="10"/>
<feGaussianBlur stdDeviation="10"/>
<feComposite in2="hardAlpha" operator="out"/>
<feColorMatrix type="matrix" values="0 0 0 0 0 0 0 0 0 0 0 0 0 0 0 0 0 0 0.1 0"/>
<feBlend mode="normal" in2="effect1_dropShadow_6_20" result="effect2_dropShadow_6_20"/>
<feColorMatrix in="SourceAlpha" type="matrix" values="0 0 0 0 0 0 0 0 0 0 0 0 0 0 0 0 0 0 127 0" result="hardAlpha"/>
<feOffset dx="-10" dy="10"/>
<feGaussianBlur stdDeviation="10"/>
<feComposite in2="hardAlpha" operator="out"/>
<feColorMatrix type="matrix" values="0 0 0 0 0 0 0 0 0 0 0 0 0 0 0 0 0 0 0.1 0"/>
<feBlend mode="normal" in2="effect2_dropShadow_6_20" result="effect3_dropShadow_6_20"/>
<feColorMatrix in="SourceAlpha" type="matrix" values="0 0 0 0 0 0 0 0 0 0 0 0 0 0 0 0 0 0 127 0" result="hardAlpha"/>
<feOffset dx="10" dy="-10"/>
<feGaussianBlur stdDeviation="10"/>
<feComposite in2="hardAlpha" operator="out"/>
<feColorMatrix type="matrix" values="0 0 0 0 0 0 0 0 0 0 0 0 0 0 0 0 0 0 0.1 0"/>
<feBlend mode="normal" in2="effect3_dropShadow_6_20" result="effect4_dropShadow_6_20"/>
<feBlend mode="normal" in="SourceGraphic" in2="effect4_dropShadow_6_20" result="shape"/>
</filter>
</defs>
</svg>
